:SAMPLES-PER-SECOND 30
:FULLY-SPECIFIED
:DEGREES
30
root  -47.0265 32.1097 2.05052 109.308 83.0472 102.941
RightUpLeg  18.4622 0.380808 -1.78693
RightLeg  41.0226 10.8797 0.760222
RightFoot  13.9816 -3.87972 16.1225
RightToes  1.16414e-010 -1.59028e-015 9.93923e-017
Spine  12.9002 8.55265 -0.85596
Spine1  12.976 13.6234 -19.4691
HEad  -42.8553 -18.6427 26.1814
LeftShoulder1  9.93923e-017 0 1.22299e-017
LeftArm  53.5286 58.0865 -32.3491
LeftForeArm  -43.0102 -24.9036 15.6568
LeftHand  0.441158 3.96486 4.01708
RightShoulder  1.98785e-016 -4.96962e-017 1.55301e-017
RightArm  12.0772 -11.6015 87.6215
RightForeArm  -28.39 34.1135 -31.0613
RightHand  1.77321 -13.5754 -8.02028
LeftUpLeg  -58.0133 -4.80601 -9.79977
LeftLeg  46.7925 -8.54485 3.20026
LeftFoot  0.553163 0.101547 -0.848967
LeftToes  4.22918e-010 -9.72932e-012 3.81536e-011
31
root  -44.4387 32.1096 2.37207 136.108 78.8239 129.374
RightUpLeg  8.73246 -3.30955 -2.39832
RightLeg  56.6261 8.11623 -4.1897
RightFoot  15.2429 -3.76679 14.853
RightToes  1.16414e-010 -1.59028e-015 9.93923e-017
Spine  16.2409 6.16993 -5.13815
Spine1  11.9783 9.9609 -18.2479
HEad  -46.7399 -18.9633 27.3476
LeftShoulder1  9.93923e-017 0 1.22299e-017
LeftArm  38.3161 42.4864 -53.0342
LeftForeArm  -42.0981 -23.5564 11.8815
LeftHand  0.3385 3.68789 5.74122
RightShoulder  1.98785e-016 -4.96962e-017 1.55301e-017
RightArm  11.0639 -12.8757 91.2913
RightForeArm  -28.2569 31.791 -29.1825
RightHand  1.85262 -13.95 -8.26823
LeftUpLeg  -56.0648 -6.18758 -12.8022
LeftLeg  51.7961 -10.8113 0.981109
LeftFoot  -2.55864 -0.279562 3.08744
LeftToes  4.22918e-010 -9.72932e-012 3.81536e-011
32
root  -41.8055 32.4557 2.60462 148.94 74.9424 142.321
RightUpLeg  -4.69967 -5.89905 -1.94417
RightLeg  73.9721 8.76774 -8.50148
RightFoot  9.64261 -2.19835 10.7443
RightToes  1.16414e-010 -1.59028e-015 9.93923e-017
Spine  18.7702 4.06208 -7.87378
Spine1  10.5039 6.56672 -16.0529
HEad  -47.2318 -18.9903 28.7094
LeftShoulder1  9.93923e-017 0 1.22299e-017
LeftArm  31.4515 21.0104 -67.8831
LeftForeArm  -43.3027 -23.5678 11.3094
LeftHand  0.241888 3.50058 7.6011
RightShoulder  1.98785e-016 -4.96962e-017 1.55301e-017
RightArm  11.1188 -16.2185 92.3564
RightForeArm  -29.8021 29.0024 -26.9818
RightHand  1.75054 -14.0108 -6.66494
LeftUpLeg  -52.248 -7.70009 -13.368
LeftLeg  55.2284 -12.6443 -1.4879
LeftFoot  -7.36628 -0.338114 5.94354
LeftToes  4.22918e-010 -9.72932e-012 3.81536e-011
33
root  -39.2849 33.0182 2.85203 156.459 71.4781 151.391
RightUpLeg  -19.9803 -5.86319 -1.2785
RightLeg  90.8252 11.1925 -6.53329
RightFoot  4.17039 -1.04034 6.90087
RightToes  1.16414e-010 -1.59028e-015 9.93923e-017
Spine  22.3728 2.26759 -11.4809
Spine1  7.35792 2.58382 -12.1795
HEad  -44.5669 -17.1701 29.5658
LeftShoulder1  9.93923e-017 0 1.22299e-017
LeftArm  32.7068 -2.09388 -77.9133
LeftForeArm  -46.7126 -25.1208 15.2369
LeftHand  0.0922743 3.15536 9.6643
RightShoulder  1.98785e-016 -4.96962e-017 1.55301e-017
RightArm  12.708 -20.9069 89.7285
RightForeArm  -31.1274 27.3257 -25.7132
RightHand  1.39047 -13.1748 -2.78268
LeftUpLeg  -46.4933 -9.77208 -12.1705
LeftLeg  56.4072 -13.1012 -2.22379
LeftFoot  -10.6551 -0.192761 6.47749
LeftToes  4.22918e-010 -9.72932e-012 3.81536e-011
34
root  -36.7389 33.7307 3.1403 162.693 68.2851 160.49
RightUpLeg  -35.0469 -4.10903 -1.47401
RightLeg  104.424 11.278 -0.336517
RightFoot  0.000614277 -0.604408 5.32751
RightToes  1.16414e-010 -1.59028e-015 9.93923e-017
Spine  26.9247 1.01378 -16.9651
Spine1  3.25601 -2.38609 -4.07933
HEad  -40.7733 -13.0491 28.3897
LeftShoulder1  9.93923e-017 0 1.22299e-017
LeftArm  28.7289 -25.6275 -78.2309
LeftForeArm  -41.7174 -27.5725 18.3373
LeftHand  -0.0950384 2.6942 11.6971
RightShoulder  1.98785e-016 -4.96962e-017 1.55301e-017
RightArm  15.3588 -24.0338 82.435
RightForeArm  -31.004 27.7027 -25.9798
RightHand  1.10953 -12.361 0.575334
LeftUpLeg  -39.4884 -11.4961 -9.48588
LeftLeg  56.6037 -13.1295 -2.29707
LeftFoot  -13.365 -0.0388902 6.33813
LeftToes  4.22918e-010 -9.72932e-012 3.81536e-011
35
root  -34.0311 34.874 3.29852 171.655 65.9508 172.485
RightUpLeg  -49.114 -2.59059 -2.18782
RightLeg  111.412 10.3915 2.61379
RightFoot  -3.89328 -0.373828 4.63131
RightToes  1.16414e-010 -1.59028e-015 9.93923e-017
Spine  31.4216 0.227853 -20.4867
Spine1  -1.21275 -6.61676 7.36222
HEad  -37.9411 -8.8641 25.3211
LeftShoulder1  9.93923e-017 0 1.22299e-017
LeftArm  20.1319 -40.0933 -76.171
LeftForeArm  -31.7665 -31.0485 20.0835
LeftHand  -0.162942 2.62454 12.9362
RightShoulder  1.98785e-016 -4.96962e-017 1.55301e-017
RightArm  17.5785 -24.1654 70.9492
RightForeArm  -31.5205 29.1973 -27.0136
RightHand  1.12092 -12.6766 0.929895
LeftUpLeg  -31.4871 -12.7808 -4.01527
LeftLeg  54.8652 -14.0295 -3.62072
LeftFoot  -16.691 0.112114 6.17455
LeftToes  4.22918e-010 -9.72932e-012 3.81536e-011
36
root  -31.3169 36.7993 3.17834 -176.561 65.4591 -173.641
RightUpLeg  -61.8655 -2.01979 -2.49618
RightLeg  110.37 11.2847 0.201887
RightFoot  -6.51104 -0.231206 4.04776
RightToes  1.16414e-010 -1.59028e-015 9.93923e-017
Spine  34.787 -0.83396 -18.0899
Spine1  -5.9596 -7.98962 16.281
HEad  -36.2573 -7.12865 21.4659
LeftShoulder1  9.93923e-017 0 1.22299e-017
LeftArm  8.25711 -52.063 -67.9442
LeftForeArm  -26.1035 -33.7039 21.6198
LeftHand  -0.181076 2.69125 13.7617
RightShoulder  1.98785e-016 -4.96962e-017 1.55301e-017
RightArm  20.1134 -22.6906 57.2221
RightForeArm  -34.8093 29.7544 -27.2172
RightHand  1.22669 -13.232 -0.0729054
LeftUpLeg  -21.9605 -13.8424 3.40992
LeftLeg  46.5715 -15.4371 -4.68045
LeftFoot  -16.0162 -0.00697465 3.6026
LeftToes  4.22918e-010 -9.72932e-012 3.81536e-011
37
root  -28.5941 39.4299 2.7818 -162.617 66.8346 -159.023
RightUpLeg  -72.0149 -2.08811 -1.01401
RightLeg  103.158 12.3506 -4.23809
RightFoot  -7.91891 -0.172415 3.82762
RightToes  1.16414e-010 -1.59028e-015 9.93923e-017
Spine  35.7546 -2.69327 -10.4667
Spine1  -10.1702 -6.90195 18.8757
HEad  -33.8763 -7.21947 17.47
LeftShoulder1  9.93923e-017 0 1.22299e-017
LeftArm  -0.420125 -52.9192 -54.544
LeftForeArm  -24.8011 -33.216 21.463
LeftHand  -0.183296 2.65757 13.6552
RightShoulder  1.98785e-016 -4.96962e-017 1.55301e-017
RightArm  26.2133 -20.5688 44.0285
RightForeArm  -39.716 27.9324 -25.5911
RightHand  1.14663 -12.8149 0.675287
LeftUpLeg  -10.2279 -14.4672 9.86486
LeftLeg  28.9447 -13.5222 -2.95941
LeftFoot  -4.35089 0.268754 -2.21793
LeftToes  4.22918e-010 -9.72932e-012 3.81536e-011
